<mxfile host="Electron" modified="2024-11-25T03:03:26.973Z" agent="Mozilla/5.0 (Windows NT 10.0; Win64; x64) AppleWebKit/537.36 (KHTML, like Gecko) draw.io/21.2.1 Chrome/112.0.5615.87 Electron/24.1.2 Safari/537.36" etag="CnpgiGioZ7FH13BOT-UN" version="21.2.1" type="device">
  <diagram name="第 1 页" id="X6H4B7U_LgM54Es-U403">
    <mxGraphModel dx="558" dy="389" grid="1" gridSize="10" guides="1" tooltips="1" connect="1" arrows="1" fold="1" page="1" pageScale="1" pageWidth="1654" pageHeight="2336" math="1" shadow="0">
      <root>
        <mxCell id="0" />
        <mxCell id="1" parent="0" />
        <mxCell id="g-9-jLWV8RxV22xEwkH8-70" value="" style="rounded=0;whiteSpace=wrap;html=1;strokeWidth=2;" vertex="1" parent="1">
          <mxGeometry x="280" y="100" width="680" height="340" as="geometry" />
        </mxCell>
        <mxCell id="g-9-jLWV8RxV22xEwkH8-69" value="" style="endArrow=classic;html=1;rounded=1;dashed=1;fillColor=#f8cecc;strokeColor=#FF0000;strokeWidth=4;opacity=30;" edge="1" parent="1">
          <mxGeometry width="50" height="50" relative="1" as="geometry">
            <mxPoint x="290" y="280" as="sourcePoint" />
            <mxPoint x="900" y="360" as="targetPoint" />
            <Array as="points">
              <mxPoint x="450" y="280" />
              <mxPoint x="450" y="200" />
              <mxPoint x="920" y="200" />
              <mxPoint x="920" y="280" />
              <mxPoint x="670" y="280" />
              <mxPoint x="670" y="360" />
            </Array>
          </mxGeometry>
        </mxCell>
        <mxCell id="g-9-jLWV8RxV22xEwkH8-1" value="" style="rounded=0;whiteSpace=wrap;html=1;fillColor=#f5f5f5;strokeColor=#000000;strokeWidth=2;fontColor=#333333;" vertex="1" parent="1">
          <mxGeometry x="320" y="190" width="260" height="210" as="geometry" />
        </mxCell>
        <mxCell id="g-9-jLWV8RxV22xEwkH8-4" value="&lt;b&gt;&lt;font style=&quot;font-size: 18px;&quot;&gt;KeyGen&lt;/font&gt;&lt;/b&gt;" style="text;html=1;strokeColor=none;fillColor=none;align=center;verticalAlign=middle;whiteSpace=wrap;rounded=0;" vertex="1" parent="1">
          <mxGeometry x="420" y="202" width="60" height="30" as="geometry" />
        </mxCell>
        <mxCell id="g-9-jLWV8RxV22xEwkH8-8" value="" style="endArrow=classic;html=1;rounded=0;entryX=0;entryY=0.25;entryDx=0;entryDy=0;" edge="1" parent="1">
          <mxGeometry width="50" height="50" relative="1" as="geometry">
            <mxPoint x="170" y="260" as="sourcePoint" />
            <mxPoint x="320" y="260.25" as="targetPoint" />
          </mxGeometry>
        </mxCell>
        <mxCell id="g-9-jLWV8RxV22xEwkH8-9" value="" style="endArrow=classic;html=1;rounded=0;entryX=0;entryY=0.25;entryDx=0;entryDy=0;" edge="1" parent="1">
          <mxGeometry width="50" height="50" relative="1" as="geometry">
            <mxPoint x="170" y="300" as="sourcePoint" />
            <mxPoint x="320" y="300.25" as="targetPoint" />
          </mxGeometry>
        </mxCell>
        <mxCell id="g-9-jLWV8RxV22xEwkH8-10" value="$$\phi=(p-1)(q-1)$$" style="text;html=1;strokeColor=none;fillColor=none;align=center;verticalAlign=middle;whiteSpace=wrap;rounded=0;" vertex="1" parent="1">
          <mxGeometry x="360" y="240" width="60" height="30" as="geometry" />
        </mxCell>
        <mxCell id="g-9-jLWV8RxV22xEwkH8-11" value="$$gcd(e, \phi)=1$$" style="text;html=1;strokeColor=none;fillColor=none;align=center;verticalAlign=middle;whiteSpace=wrap;rounded=0;" vertex="1" parent="1">
          <mxGeometry x="490" y="240" width="60" height="30" as="geometry" />
        </mxCell>
        <mxCell id="g-9-jLWV8RxV22xEwkH8-12" value="$$e*d(mod&amp;nbsp; \phi)=1$$" style="text;html=1;strokeColor=none;fillColor=none;align=center;verticalAlign=middle;whiteSpace=wrap;rounded=0;" vertex="1" parent="1">
          <mxGeometry x="360" y="275" width="60" height="30" as="geometry" />
        </mxCell>
        <mxCell id="g-9-jLWV8RxV22xEwkH8-13" value="&lt;b&gt;&lt;font color=&quot;#000000&quot;&gt;Mult&lt;/font&gt;&lt;/b&gt;" style="rounded=0;whiteSpace=wrap;html=1;fillColor=#CCCCCC;strokeColor=#000000;fontColor=#333333;" vertex="1" parent="1">
          <mxGeometry x="340" y="338" width="80" height="40" as="geometry" />
        </mxCell>
        <mxCell id="g-9-jLWV8RxV22xEwkH8-37" value="" style="rounded=0;whiteSpace=wrap;html=1;fillColor=#E6E6E6;strokeColor=#000000;fontColor=#333333;" vertex="1" parent="1">
          <mxGeometry x="440" y="308" width="120" height="80" as="geometry" />
        </mxCell>
        <mxCell id="g-9-jLWV8RxV22xEwkH8-36" value="&lt;b&gt;&lt;font color=&quot;#000000&quot;&gt;Divide&lt;/font&gt;&lt;/b&gt;" style="rounded=0;whiteSpace=wrap;html=1;fillColor=#CCCCCC;strokeColor=#000000;fontColor=#333333;" vertex="1" parent="1">
          <mxGeometry x="460" y="338" width="80" height="40" as="geometry" />
        </mxCell>
        <mxCell id="g-9-jLWV8RxV22xEwkH8-38" value="&lt;b&gt;gcd&lt;/b&gt;" style="text;html=1;strokeColor=none;fillColor=none;align=center;verticalAlign=middle;whiteSpace=wrap;rounded=0;" vertex="1" parent="1">
          <mxGeometry x="470" y="308" width="60" height="30" as="geometry" />
        </mxCell>
        <mxCell id="g-9-jLWV8RxV22xEwkH8-39" value="" style="rounded=0;whiteSpace=wrap;html=1;fillColor=#f5f5f5;strokeColor=#000000;strokeWidth=2;fontColor=#333333;" vertex="1" parent="1">
          <mxGeometry x="720" y="160" width="160" height="100" as="geometry" />
        </mxCell>
        <mxCell id="g-9-jLWV8RxV22xEwkH8-40" value="" style="rounded=0;whiteSpace=wrap;html=1;fillColor=#f5f5f5;strokeColor=#000000;strokeWidth=2;fontColor=#333333;" vertex="1" parent="1">
          <mxGeometry x="720" y="299" width="160" height="101" as="geometry" />
        </mxCell>
        <mxCell id="g-9-jLWV8RxV22xEwkH8-41" value="&lt;b&gt;&lt;i&gt;&lt;font color=&quot;#ff0000&quot; style=&quot;font-size: 14px;&quot;&gt;prime: p&lt;/font&gt;&lt;/i&gt;&lt;/b&gt;" style="text;html=1;strokeColor=none;fillColor=none;align=center;verticalAlign=middle;whiteSpace=wrap;rounded=0;" vertex="1" parent="1">
          <mxGeometry x="210" y="225.25" width="70" height="30" as="geometry" />
        </mxCell>
        <mxCell id="g-9-jLWV8RxV22xEwkH8-42" value="&lt;b&gt;&lt;i&gt;&lt;font color=&quot;#ff0000&quot; style=&quot;font-size: 14px;&quot;&gt;prime: q&lt;/font&gt;&lt;/i&gt;&lt;/b&gt;" style="text;html=1;strokeColor=none;fillColor=none;align=center;verticalAlign=middle;whiteSpace=wrap;rounded=0;" vertex="1" parent="1">
          <mxGeometry x="210" y="270" width="70" height="30" as="geometry" />
        </mxCell>
        <mxCell id="g-9-jLWV8RxV22xEwkH8-43" value="" style="endArrow=classic;html=1;rounded=0;entryX=0;entryY=0.25;entryDx=0;entryDy=0;" edge="1" parent="1">
          <mxGeometry width="50" height="50" relative="1" as="geometry">
            <mxPoint x="170" y="340" as="sourcePoint" />
            <mxPoint x="320" y="340.25" as="targetPoint" />
          </mxGeometry>
        </mxCell>
        <mxCell id="g-9-jLWV8RxV22xEwkH8-44" value="&lt;b&gt;&lt;i&gt;&lt;font style=&quot;font-size: 14px;&quot;&gt;start&lt;/font&gt;&lt;/i&gt;&lt;/b&gt;" style="text;html=1;strokeColor=none;fillColor=none;align=center;verticalAlign=middle;whiteSpace=wrap;rounded=0;" vertex="1" parent="1">
          <mxGeometry x="220" y="310.25" width="70" height="30" as="geometry" />
        </mxCell>
        <mxCell id="g-9-jLWV8RxV22xEwkH8-45" value="" style="endArrow=classic;html=1;rounded=0;entryX=0;entryY=0.75;entryDx=0;entryDy=0;" edge="1" parent="1">
          <mxGeometry width="50" height="50" relative="1" as="geometry">
            <mxPoint x="580" y="280" as="sourcePoint" />
            <mxPoint x="720.0000000000002" y="225" as="targetPoint" />
            <Array as="points">
              <mxPoint x="610" y="280" />
              <mxPoint x="610" y="225" />
            </Array>
          </mxGeometry>
        </mxCell>
        <mxCell id="g-9-jLWV8RxV22xEwkH8-46" value="$$n=p*q$$" style="text;html=1;strokeColor=none;fillColor=none;align=center;verticalAlign=middle;whiteSpace=wrap;rounded=0;" vertex="1" parent="1">
          <mxGeometry x="490" y="275" width="60" height="30" as="geometry" />
        </mxCell>
        <mxCell id="g-9-jLWV8RxV22xEwkH8-47" value="&lt;b&gt;&lt;i&gt;&lt;font style=&quot;font-size: 14px;&quot;&gt;public key: e&lt;/font&gt;&lt;/i&gt;&lt;/b&gt;" style="text;html=1;strokeColor=none;fillColor=none;align=center;verticalAlign=middle;whiteSpace=wrap;rounded=0;" vertex="1" parent="1">
          <mxGeometry x="613" y="172" width="90" height="30" as="geometry" />
        </mxCell>
        <mxCell id="g-9-jLWV8RxV22xEwkH8-48" value="" style="endArrow=classic;html=1;rounded=0;entryX=0;entryY=0.75;entryDx=0;entryDy=0;exitX=1.002;exitY=0.048;exitDx=0;exitDy=0;exitPerimeter=0;" edge="1" parent="1" source="g-9-jLWV8RxV22xEwkH8-1">
          <mxGeometry width="50" height="50" relative="1" as="geometry">
            <mxPoint x="580" y="200" as="sourcePoint" />
            <mxPoint x="720" y="200" as="targetPoint" />
            <Array as="points">
              <mxPoint x="600" y="200" />
            </Array>
          </mxGeometry>
        </mxCell>
        <mxCell id="g-9-jLWV8RxV22xEwkH8-49" value="" style="endArrow=classic;html=1;rounded=0;entryX=0;entryY=0.75;entryDx=0;entryDy=0;" edge="1" parent="1">
          <mxGeometry width="50" height="50" relative="1" as="geometry">
            <mxPoint x="170" y="175" as="sourcePoint" />
            <mxPoint x="720" y="175" as="targetPoint" />
            <Array as="points">
              <mxPoint x="300" y="175" />
              <mxPoint x="600" y="175" />
            </Array>
          </mxGeometry>
        </mxCell>
        <mxCell id="g-9-jLWV8RxV22xEwkH8-50" value="&lt;b&gt;&lt;i&gt;&lt;font style=&quot;font-size: 14px;&quot;&gt;original text: m&lt;/font&gt;&lt;/i&gt;&lt;/b&gt;" style="text;html=1;strokeColor=none;fillColor=none;align=center;verticalAlign=middle;whiteSpace=wrap;rounded=0;" vertex="1" parent="1">
          <mxGeometry x="171" y="145" width="109" height="30" as="geometry" />
        </mxCell>
        <mxCell id="g-9-jLWV8RxV22xEwkH8-51" value="&lt;b&gt;&lt;i&gt;&lt;font style=&quot;font-size: 14px;&quot;&gt;modulus: n&lt;/font&gt;&lt;/i&gt;&lt;/b&gt;" style="text;html=1;strokeColor=none;fillColor=none;align=center;verticalAlign=middle;whiteSpace=wrap;rounded=0;" vertex="1" parent="1">
          <mxGeometry x="617" y="200" width="90" height="30" as="geometry" />
        </mxCell>
        <mxCell id="g-9-jLWV8RxV22xEwkH8-52" value="$$c=m^e(modn)$$" style="text;html=1;strokeColor=none;fillColor=none;align=center;verticalAlign=middle;whiteSpace=wrap;rounded=0;" vertex="1" parent="1">
          <mxGeometry x="770" y="185" width="60" height="30" as="geometry" />
        </mxCell>
        <mxCell id="g-9-jLWV8RxV22xEwkH8-53" value="&lt;b&gt;&lt;font color=&quot;#000000&quot;&gt;Mult&lt;/font&gt;&lt;/b&gt;" style="rounded=0;whiteSpace=wrap;html=1;fillColor=#CCCCCC;strokeColor=#000000;fontColor=#333333;" vertex="1" parent="1">
          <mxGeometry x="730" y="220" width="60" height="30" as="geometry" />
        </mxCell>
        <mxCell id="g-9-jLWV8RxV22xEwkH8-54" value="&lt;b&gt;&lt;font color=&quot;#000000&quot;&gt;Divide&lt;/font&gt;&lt;/b&gt;" style="rounded=0;whiteSpace=wrap;html=1;fillColor=#CCCCCC;strokeColor=#000000;fontColor=#333333;" vertex="1" parent="1">
          <mxGeometry x="810" y="220" width="60" height="30" as="geometry" />
        </mxCell>
        <mxCell id="g-9-jLWV8RxV22xEwkH8-55" value="&lt;b&gt;&lt;font color=&quot;#000000&quot;&gt;Mult&lt;/font&gt;&lt;/b&gt;" style="rounded=0;whiteSpace=wrap;html=1;fillColor=#CCCCCC;strokeColor=#000000;fontColor=#333333;" vertex="1" parent="1">
          <mxGeometry x="730" y="360" width="60" height="30" as="geometry" />
        </mxCell>
        <mxCell id="g-9-jLWV8RxV22xEwkH8-56" value="&lt;b&gt;&lt;font color=&quot;#000000&quot;&gt;Divide&lt;/font&gt;&lt;/b&gt;" style="rounded=0;whiteSpace=wrap;html=1;fillColor=#CCCCCC;strokeColor=#000000;fontColor=#333333;" vertex="1" parent="1">
          <mxGeometry x="810" y="360" width="60" height="30" as="geometry" />
        </mxCell>
        <mxCell id="g-9-jLWV8RxV22xEwkH8-6" value="&lt;b&gt;&lt;font style=&quot;font-size: 18px;&quot;&gt;RSA Encrypt&lt;/font&gt;&lt;/b&gt;" style="text;html=1;strokeColor=none;fillColor=none;align=center;verticalAlign=middle;whiteSpace=wrap;rounded=0;" vertex="1" parent="1">
          <mxGeometry x="740" y="160" width="120" height="30" as="geometry" />
        </mxCell>
        <mxCell id="g-9-jLWV8RxV22xEwkH8-7" value="&lt;b&gt;&lt;font style=&quot;font-size: 18px;&quot;&gt;RSA Decrypt&lt;/font&gt;&lt;/b&gt;" style="text;html=1;strokeColor=none;fillColor=none;align=center;verticalAlign=middle;whiteSpace=wrap;rounded=0;" vertex="1" parent="1">
          <mxGeometry x="740" y="300" width="120" height="30" as="geometry" />
        </mxCell>
        <mxCell id="g-9-jLWV8RxV22xEwkH8-57" value="$$o=c^d(modn)$$" style="text;html=1;strokeColor=none;fillColor=none;align=center;verticalAlign=middle;whiteSpace=wrap;rounded=0;" vertex="1" parent="1">
          <mxGeometry x="770" y="324" width="60" height="30" as="geometry" />
        </mxCell>
        <mxCell id="g-9-jLWV8RxV22xEwkH8-58" value="" style="endArrow=classic;html=1;rounded=0;entryX=0;entryY=0.25;entryDx=0;entryDy=0;exitX=1;exitY=0.5;exitDx=0;exitDy=0;" edge="1" parent="1" source="g-9-jLWV8RxV22xEwkH8-39" target="g-9-jLWV8RxV22xEwkH8-40">
          <mxGeometry width="50" height="50" relative="1" as="geometry">
            <mxPoint x="880" y="225" as="sourcePoint" />
            <mxPoint x="960" y="225" as="targetPoint" />
            <Array as="points">
              <mxPoint x="920" y="210" />
              <mxPoint x="920" y="280" />
              <mxPoint x="690" y="280" />
              <mxPoint x="690" y="324" />
            </Array>
          </mxGeometry>
        </mxCell>
        <mxCell id="g-9-jLWV8RxV22xEwkH8-59" value="&lt;b&gt;&lt;i&gt;&lt;font style=&quot;font-size: 14px;&quot;&gt;private key: d&lt;/font&gt;&lt;/i&gt;&lt;/b&gt;" style="text;html=1;strokeColor=none;fillColor=none;align=center;verticalAlign=middle;whiteSpace=wrap;rounded=0;" vertex="1" parent="1">
          <mxGeometry x="612" y="322" width="99" height="30" as="geometry" />
        </mxCell>
        <mxCell id="g-9-jLWV8RxV22xEwkH8-60" value="" style="endArrow=classic;html=1;rounded=0;entryX=0;entryY=0.75;entryDx=0;entryDy=0;" edge="1" parent="1">
          <mxGeometry width="50" height="50" relative="1" as="geometry">
            <mxPoint x="580" y="350" as="sourcePoint" />
            <mxPoint x="720" y="350" as="targetPoint" />
          </mxGeometry>
        </mxCell>
        <mxCell id="g-9-jLWV8RxV22xEwkH8-61" value="" style="endArrow=classic;html=1;rounded=0;strokeWidth=1;entryX=0;entryY=0.75;entryDx=0;entryDy=0;" edge="1" parent="1" target="g-9-jLWV8RxV22xEwkH8-40">
          <mxGeometry width="50" height="50" relative="1" as="geometry">
            <mxPoint x="610" y="280" as="sourcePoint" />
            <mxPoint x="700.0000000000002" y="360" as="targetPoint" />
            <Array as="points">
              <mxPoint x="610" y="375" />
            </Array>
          </mxGeometry>
        </mxCell>
        <mxCell id="g-9-jLWV8RxV22xEwkH8-62" value="&lt;b&gt;&lt;i&gt;&lt;font style=&quot;font-size: 14px;&quot;&gt;encrypted text: c&lt;/font&gt;&lt;/i&gt;&lt;/b&gt;" style="text;html=1;strokeColor=none;fillColor=none;align=center;verticalAlign=middle;whiteSpace=wrap;rounded=0;" vertex="1" parent="1">
          <mxGeometry x="631" y="254" width="119" height="30" as="geometry" />
        </mxCell>
        <mxCell id="g-9-jLWV8RxV22xEwkH8-63" value="" style="ellipse;whiteSpace=wrap;html=1;aspect=fixed;fillColor=#000000;" vertex="1" parent="1">
          <mxGeometry x="607.5" y="278" width="5" height="5" as="geometry" />
        </mxCell>
        <mxCell id="g-9-jLWV8RxV22xEwkH8-64" value="" style="endArrow=classic;html=1;rounded=0;entryX=0;entryY=0.75;entryDx=0;entryDy=0;" edge="1" parent="1">
          <mxGeometry width="50" height="50" relative="1" as="geometry">
            <mxPoint x="880" y="334" as="sourcePoint" />
            <mxPoint x="1020" y="334" as="targetPoint" />
          </mxGeometry>
        </mxCell>
        <mxCell id="g-9-jLWV8RxV22xEwkH8-65" value="" style="endArrow=classic;html=1;rounded=0;entryX=0;entryY=0.75;entryDx=0;entryDy=0;" edge="1" parent="1">
          <mxGeometry width="50" height="50" relative="1" as="geometry">
            <mxPoint x="880" y="374.66" as="sourcePoint" />
            <mxPoint x="1020" y="374.66" as="targetPoint" />
          </mxGeometry>
        </mxCell>
        <mxCell id="g-9-jLWV8RxV22xEwkH8-66" value="&lt;b&gt;&lt;i&gt;&lt;font style=&quot;font-size: 14px;&quot;&gt;decrypted text: o&lt;/font&gt;&lt;/i&gt;&lt;/b&gt;" style="text;html=1;strokeColor=none;fillColor=none;align=center;verticalAlign=middle;whiteSpace=wrap;rounded=0;" vertex="1" parent="1">
          <mxGeometry x="890" y="306" width="121" height="30" as="geometry" />
        </mxCell>
        <mxCell id="g-9-jLWV8RxV22xEwkH8-67" value="&lt;b&gt;&lt;i&gt;&lt;font color=&quot;#ff0000&quot; style=&quot;font-size: 14px;&quot;&gt;finish&lt;/font&gt;&lt;/i&gt;&lt;/b&gt;" style="text;html=1;strokeColor=none;fillColor=none;align=center;verticalAlign=middle;whiteSpace=wrap;rounded=0;" vertex="1" parent="1">
          <mxGeometry x="890" y="349" width="121" height="30" as="geometry" />
        </mxCell>
        <mxCell id="g-9-jLWV8RxV22xEwkH8-68" value="&lt;b&gt;&lt;i&gt;&lt;font color=&quot;#f19c99&quot; style=&quot;font-size: 15px;&quot;&gt;Information Flow Tracking&lt;/font&gt;&lt;/i&gt;&lt;/b&gt;" style="text;html=1;strokeColor=none;fillColor=none;align=center;verticalAlign=middle;whiteSpace=wrap;rounded=0;opacity=50;" vertex="1" parent="1">
          <mxGeometry x="631" y="410" width="212.5" height="30" as="geometry" />
        </mxCell>
        <mxCell id="g-9-jLWV8RxV22xEwkH8-71" value="&lt;b&gt;&lt;font style=&quot;font-size: 24px;&quot;&gt;RSA&lt;/font&gt;&lt;/b&gt;" style="text;html=1;strokeColor=none;fillColor=none;align=center;verticalAlign=middle;whiteSpace=wrap;rounded=0;" vertex="1" parent="1">
          <mxGeometry x="325" y="115" width="60" height="30" as="geometry" />
        </mxCell>
        <mxCell id="g-9-jLWV8RxV22xEwkH8-73" value="&lt;b&gt;&lt;font color=&quot;#000000&quot;&gt;RSA1&lt;/font&gt;&lt;/b&gt;" style="rounded=0;whiteSpace=wrap;html=1;fillColor=#CCCCCC;strokeColor=#000000;fontColor=#333333;strokeWidth=2;" vertex="1" parent="1">
          <mxGeometry x="360" y="480" width="80" height="80" as="geometry" />
        </mxCell>
        <mxCell id="g-9-jLWV8RxV22xEwkH8-74" value="&lt;b&gt;&lt;font color=&quot;#000000&quot;&gt;RSA2&lt;/font&gt;&lt;/b&gt;" style="rounded=0;whiteSpace=wrap;html=1;fillColor=#CCCCCC;strokeColor=#000000;fontColor=#333333;strokeWidth=2;" vertex="1" parent="1">
          <mxGeometry x="360" y="580" width="80" height="80" as="geometry" />
        </mxCell>
        <mxCell id="g-9-jLWV8RxV22xEwkH8-75" value="" style="endArrow=classic;html=1;rounded=0;entryX=0;entryY=0.25;entryDx=0;entryDy=0;" edge="1" parent="1">
          <mxGeometry width="50" height="50" relative="1" as="geometry">
            <mxPoint x="280" y="490" as="sourcePoint" />
            <mxPoint x="360" y="490" as="targetPoint" />
          </mxGeometry>
        </mxCell>
        <mxCell id="g-9-jLWV8RxV22xEwkH8-76" value="&lt;b&gt;&lt;i&gt;&lt;font color=&quot;#ff0000&quot; style=&quot;font-size: 14px;&quot;&gt;p1&lt;/font&gt;&lt;/i&gt;&lt;/b&gt;" style="text;html=1;strokeColor=none;fillColor=none;align=center;verticalAlign=middle;whiteSpace=wrap;rounded=0;" vertex="1" parent="1">
          <mxGeometry x="290" y="470" width="40" height="20" as="geometry" />
        </mxCell>
        <mxCell id="g-9-jLWV8RxV22xEwkH8-78" value="" style="endArrow=classic;html=1;rounded=0;entryX=0;entryY=0.25;entryDx=0;entryDy=0;" edge="1" parent="1">
          <mxGeometry width="50" height="50" relative="1" as="geometry">
            <mxPoint x="280" y="510" as="sourcePoint" />
            <mxPoint x="360" y="510" as="targetPoint" />
          </mxGeometry>
        </mxCell>
        <mxCell id="g-9-jLWV8RxV22xEwkH8-79" value="&lt;b&gt;&lt;i&gt;&lt;font color=&quot;#ff0000&quot; style=&quot;font-size: 14px;&quot;&gt;q1&lt;/font&gt;&lt;/i&gt;&lt;/b&gt;" style="text;html=1;strokeColor=none;fillColor=none;align=center;verticalAlign=middle;whiteSpace=wrap;rounded=0;" vertex="1" parent="1">
          <mxGeometry x="290" y="490" width="40" height="20" as="geometry" />
        </mxCell>
        <mxCell id="g-9-jLWV8RxV22xEwkH8-80" value="" style="endArrow=classic;html=1;rounded=0;entryX=0;entryY=0.25;entryDx=0;entryDy=0;" edge="1" parent="1">
          <mxGeometry width="50" height="50" relative="1" as="geometry">
            <mxPoint x="280" y="590" as="sourcePoint" />
            <mxPoint x="360" y="590" as="targetPoint" />
          </mxGeometry>
        </mxCell>
        <mxCell id="g-9-jLWV8RxV22xEwkH8-81" value="&lt;b&gt;&lt;i&gt;&lt;font color=&quot;#ff0000&quot; style=&quot;font-size: 14px;&quot;&gt;p2&lt;/font&gt;&lt;/i&gt;&lt;/b&gt;" style="text;html=1;strokeColor=none;fillColor=none;align=center;verticalAlign=middle;whiteSpace=wrap;rounded=0;" vertex="1" parent="1">
          <mxGeometry x="290" y="570" width="40" height="20" as="geometry" />
        </mxCell>
        <mxCell id="g-9-jLWV8RxV22xEwkH8-82" value="" style="endArrow=classic;html=1;rounded=0;entryX=0;entryY=0.25;entryDx=0;entryDy=0;" edge="1" parent="1">
          <mxGeometry width="50" height="50" relative="1" as="geometry">
            <mxPoint x="280" y="610" as="sourcePoint" />
            <mxPoint x="360" y="610" as="targetPoint" />
          </mxGeometry>
        </mxCell>
        <mxCell id="g-9-jLWV8RxV22xEwkH8-83" value="&lt;b&gt;&lt;i&gt;&lt;font style=&quot;font-size: 14px;&quot;&gt;q2&lt;/font&gt;&lt;/i&gt;&lt;/b&gt;" style="text;html=1;strokeColor=none;fillColor=none;align=center;verticalAlign=middle;whiteSpace=wrap;rounded=0;fontColor=#FF0000;" vertex="1" parent="1">
          <mxGeometry x="290" y="590" width="40" height="20" as="geometry" />
        </mxCell>
        <mxCell id="g-9-jLWV8RxV22xEwkH8-84" value="" style="shape=xor;whiteSpace=wrap;html=1;strokeWidth=2;" vertex="1" parent="1">
          <mxGeometry x="520" y="550" width="40" height="40" as="geometry" />
        </mxCell>
        <mxCell id="g-9-jLWV8RxV22xEwkH8-85" value="" style="endArrow=none;html=1;curved=1;strokeWidth=2;" edge="1" parent="1">
          <mxGeometry width="50" height="50" relative="1" as="geometry">
            <mxPoint x="510" y="550" as="sourcePoint" />
            <mxPoint x="510" y="590" as="targetPoint" />
            <Array as="points">
              <mxPoint x="530" y="570" />
            </Array>
          </mxGeometry>
        </mxCell>
        <mxCell id="g-9-jLWV8RxV22xEwkH8-86" value="" style="endArrow=none;html=1;rounded=0;exitX=1;exitY=0.5;exitDx=0;exitDy=0;" edge="1" parent="1" source="g-9-jLWV8RxV22xEwkH8-73">
          <mxGeometry width="50" height="50" relative="1" as="geometry">
            <mxPoint x="470" y="530.0000000000001" as="sourcePoint" />
            <mxPoint x="517" y="560" as="targetPoint" />
            <Array as="points">
              <mxPoint x="460" y="520" />
              <mxPoint x="460" y="560" />
            </Array>
          </mxGeometry>
        </mxCell>
        <mxCell id="g-9-jLWV8RxV22xEwkH8-87" value="" style="endArrow=none;html=1;rounded=0;exitX=1;exitY=0.5;exitDx=0;exitDy=0;" edge="1" parent="1" source="g-9-jLWV8RxV22xEwkH8-74">
          <mxGeometry width="50" height="50" relative="1" as="geometry">
            <mxPoint x="471.91999999999996" y="610.4799999999999" as="sourcePoint" />
            <mxPoint x="517" y="580" as="targetPoint" />
            <Array as="points">
              <mxPoint x="460" y="620" />
              <mxPoint x="460" y="580" />
            </Array>
          </mxGeometry>
        </mxCell>
        <mxCell id="g-9-jLWV8RxV22xEwkH8-88" value="&lt;b&gt;&lt;i&gt;&lt;font style=&quot;font-size: 14px;&quot;&gt;finish1&lt;/font&gt;&lt;/i&gt;&lt;/b&gt;" style="text;html=1;strokeColor=none;fillColor=none;align=center;verticalAlign=middle;whiteSpace=wrap;rounded=0;" vertex="1" parent="1">
          <mxGeometry x="456" y="540" width="60" height="20" as="geometry" />
        </mxCell>
        <mxCell id="g-9-jLWV8RxV22xEwkH8-89" value="&lt;b&gt;&lt;i&gt;&lt;font style=&quot;font-size: 14px;&quot;&gt;finish2&lt;/font&gt;&lt;/i&gt;&lt;/b&gt;" style="text;html=1;strokeColor=none;fillColor=none;align=center;verticalAlign=middle;whiteSpace=wrap;rounded=0;" vertex="1" parent="1">
          <mxGeometry x="456" y="579" width="60" height="20" as="geometry" />
        </mxCell>
        <mxCell id="g-9-jLWV8RxV22xEwkH8-90" value="" style="endArrow=none;html=1;rounded=0;entryX=1;entryY=0.5;entryDx=0;entryDy=0;entryPerimeter=0;" edge="1" parent="1" target="g-9-jLWV8RxV22xEwkH8-84">
          <mxGeometry width="50" height="50" relative="1" as="geometry">
            <mxPoint x="640" y="570" as="sourcePoint" />
            <mxPoint x="490" y="570" as="targetPoint" />
          </mxGeometry>
        </mxCell>
        <mxCell id="g-9-jLWV8RxV22xEwkH8-91" value="&lt;b&gt;&lt;i&gt;&lt;font color=&quot;#ff0000&quot; style=&quot;font-size: 14px;&quot;&gt;always 0?&lt;/font&gt;&lt;/i&gt;&lt;/b&gt;" style="text;html=1;strokeColor=none;fillColor=none;align=center;verticalAlign=middle;whiteSpace=wrap;rounded=0;" vertex="1" parent="1">
          <mxGeometry x="565" y="550" width="70" height="20" as="geometry" />
        </mxCell>
        <mxCell id="g-9-jLWV8RxV22xEwkH8-92" value="" style="endArrow=classic;html=1;rounded=0;" edge="1" parent="1">
          <mxGeometry width="50" height="50" relative="1" as="geometry">
            <mxPoint x="280" y="530" as="sourcePoint" />
            <mxPoint x="360" y="530" as="targetPoint" />
          </mxGeometry>
        </mxCell>
        <mxCell id="g-9-jLWV8RxV22xEwkH8-99" value="" style="endArrow=classic;html=1;rounded=0;" edge="1" parent="1">
          <mxGeometry width="50" height="50" relative="1" as="geometry">
            <mxPoint x="340" y="530" as="sourcePoint" />
            <mxPoint x="360" y="630" as="targetPoint" />
            <Array as="points">
              <mxPoint x="340" y="630" />
            </Array>
          </mxGeometry>
        </mxCell>
        <mxCell id="g-9-jLWV8RxV22xEwkH8-102" value="&lt;b&gt;&lt;font style=&quot;font-size: 14px;&quot;&gt;&lt;i&gt;start&lt;/i&gt;&lt;/font&gt;&lt;/b&gt;" style="text;html=1;strokeColor=none;fillColor=none;align=center;verticalAlign=middle;whiteSpace=wrap;rounded=0;" vertex="1" parent="1">
          <mxGeometry x="295" y="534" width="30" height="10" as="geometry" />
        </mxCell>
        <mxCell id="g-9-jLWV8RxV22xEwkH8-105" value="&lt;b&gt;&lt;font style=&quot;font-size: 14px;&quot;&gt;&lt;i&gt;m&lt;/i&gt;&lt;/font&gt;&lt;/b&gt;" style="text;html=1;strokeColor=none;fillColor=none;align=center;verticalAlign=middle;whiteSpace=wrap;rounded=0;" vertex="1" parent="1">
          <mxGeometry x="295" y="515" width="30" height="10" as="geometry" />
        </mxCell>
        <mxCell id="g-9-jLWV8RxV22xEwkH8-107" value="" style="endArrow=classic;html=1;rounded=0;" edge="1" parent="1">
          <mxGeometry width="50" height="50" relative="1" as="geometry">
            <mxPoint x="280" y="550" as="sourcePoint" />
            <mxPoint x="360" y="550" as="targetPoint" />
          </mxGeometry>
        </mxCell>
        <mxCell id="g-9-jLWV8RxV22xEwkH8-108" value="" style="endArrow=classic;html=1;rounded=0;" edge="1" parent="1">
          <mxGeometry width="50" height="50" relative="1" as="geometry">
            <mxPoint x="330" y="550" as="sourcePoint" />
            <mxPoint x="360" y="650" as="targetPoint" />
            <Array as="points">
              <mxPoint x="330" y="650" />
            </Array>
          </mxGeometry>
        </mxCell>
        <mxCell id="g-9-jLWV8RxV22xEwkH8-110" value="" style="ellipse;whiteSpace=wrap;html=1;aspect=fixed;fillColor=#000000;" vertex="1" parent="1">
          <mxGeometry x="338" y="528" width="5" height="5" as="geometry" />
        </mxCell>
        <mxCell id="g-9-jLWV8RxV22xEwkH8-111" value="" style="ellipse;whiteSpace=wrap;html=1;aspect=fixed;fillColor=#000000;" vertex="1" parent="1">
          <mxGeometry x="328" y="548" width="5" height="5" as="geometry" />
        </mxCell>
        <mxCell id="g-9-jLWV8RxV22xEwkH8-113" value="" style="rounded=0;whiteSpace=wrap;html=1;fillColor=#f5f5f5;strokeColor=#000000;strokeWidth=2;fontColor=#333333;" vertex="1" parent="1">
          <mxGeometry x="330" y="800" width="220" height="120" as="geometry" />
        </mxCell>
        <mxCell id="g-9-jLWV8RxV22xEwkH8-114" value="&lt;b&gt;&lt;font style=&quot;font-size: 24px;&quot;&gt;&lt;i&gt;&lt;u&gt;Taint Analysis&lt;/u&gt;&lt;/i&gt;&lt;/font&gt;&lt;/b&gt;" style="text;html=1;strokeColor=none;fillColor=none;align=center;verticalAlign=middle;whiteSpace=wrap;rounded=0;" vertex="1" parent="1">
          <mxGeometry x="320" y="739" width="170" height="30" as="geometry" />
        </mxCell>
        <mxCell id="g-9-jLWV8RxV22xEwkH8-115" value="&lt;b&gt;&lt;font style=&quot;font-size: 24px;&quot;&gt;&lt;i&gt;&lt;u&gt;Self Composition&lt;/u&gt;&lt;/i&gt;&lt;/font&gt;&lt;/b&gt;" style="text;html=1;strokeColor=none;fillColor=none;align=center;verticalAlign=middle;whiteSpace=wrap;rounded=0;" vertex="1" parent="1">
          <mxGeometry x="320" y="960" width="200" height="30" as="geometry" />
        </mxCell>
        <mxCell id="g-9-jLWV8RxV22xEwkH8-116" value="&lt;b&gt;&lt;font size=&quot;1&quot; color=&quot;#000000&quot;&gt;&lt;i style=&quot;font-size: 14px;&quot;&gt;Synthesize to AIG&lt;/i&gt;&lt;/font&gt;&lt;/b&gt;" style="rounded=0;whiteSpace=wrap;html=1;fillColor=#CCCCCC;strokeColor=#000000;fontColor=#333333;" vertex="1" parent="1">
          <mxGeometry x="350" y="820" width="80" height="80" as="geometry" />
        </mxCell>
        <mxCell id="g-9-jLWV8RxV22xEwkH8-117" value="&lt;b&gt;&lt;font size=&quot;1&quot; color=&quot;#000000&quot;&gt;&lt;i style=&quot;font-size: 14px;&quot;&gt;Add Taint Logic&lt;/i&gt;&lt;/font&gt;&lt;/b&gt;" style="rounded=0;whiteSpace=wrap;html=1;fillColor=#CCCCCC;strokeColor=#000000;fontColor=#333333;" vertex="1" parent="1">
          <mxGeometry x="450" y="820" width="80" height="80" as="geometry" />
        </mxCell>
        <mxCell id="g-9-jLWV8RxV22xEwkH8-118" value="" style="endArrow=classic;html=1;rounded=0;entryX=0;entryY=0.5;entryDx=0;entryDy=0;" edge="1" parent="1" target="g-9-jLWV8RxV22xEwkH8-116">
          <mxGeometry width="50" height="50" relative="1" as="geometry">
            <mxPoint x="280" y="860" as="sourcePoint" />
            <mxPoint x="410" y="880" as="targetPoint" />
          </mxGeometry>
        </mxCell>
        <mxCell id="g-9-jLWV8RxV22xEwkH8-119" value="" style="endArrow=classic;html=1;rounded=0;entryX=0;entryY=0.5;entryDx=0;entryDy=0;exitX=1;exitY=0.5;exitDx=0;exitDy=0;" edge="1" parent="1" source="g-9-jLWV8RxV22xEwkH8-116" target="g-9-jLWV8RxV22xEwkH8-117">
          <mxGeometry width="50" height="50" relative="1" as="geometry">
            <mxPoint x="290" y="870" as="sourcePoint" />
            <mxPoint x="360" y="870" as="targetPoint" />
          </mxGeometry>
        </mxCell>
        <mxCell id="g-9-jLWV8RxV22xEwkH8-122" value="&lt;b&gt;RTL Module&lt;/b&gt;" style="text;html=1;strokeColor=none;fillColor=none;align=center;verticalAlign=middle;whiteSpace=wrap;rounded=0;" vertex="1" parent="1">
          <mxGeometry x="280" y="830" width="50" height="30" as="geometry" />
        </mxCell>
        <mxCell id="g-9-jLWV8RxV22xEwkH8-125" value="" style="rounded=0;whiteSpace=wrap;html=1;fillColor=#f5f5f5;strokeColor=#000000;strokeWidth=2;fontColor=#333333;" vertex="1" parent="1">
          <mxGeometry x="620.5" y="800" width="140" height="120" as="geometry" />
        </mxCell>
        <mxCell id="g-9-jLWV8RxV22xEwkH8-127" value="&lt;b&gt;&lt;font style=&quot;font-size: 14px;&quot;&gt;Taint Logic Module Builder&lt;/font&gt;&lt;/b&gt;" style="text;html=1;strokeColor=none;fillColor=none;align=left;verticalAlign=middle;whiteSpace=wrap;rounded=0;fontStyle=2" vertex="1" parent="1">
          <mxGeometry x="330" y="770" width="220" height="30" as="geometry" />
        </mxCell>
        <mxCell id="g-9-jLWV8RxV22xEwkH8-128" value="&lt;span style=&quot;font-size: 14px;&quot;&gt;&lt;b&gt;Model Checker&lt;/b&gt;&lt;/span&gt;" style="text;html=1;strokeColor=none;fillColor=none;align=left;verticalAlign=middle;whiteSpace=wrap;rounded=0;fontStyle=2" vertex="1" parent="1">
          <mxGeometry x="620" y="770" width="140" height="30" as="geometry" />
        </mxCell>
        <mxCell id="g-9-jLWV8RxV22xEwkH8-129" value="(rtl.v)" style="text;html=1;strokeColor=none;fillColor=none;align=center;verticalAlign=middle;whiteSpace=wrap;rounded=0;" vertex="1" parent="1">
          <mxGeometry x="280" y="859" width="50" height="20" as="geometry" />
        </mxCell>
        <mxCell id="g-9-jLWV8RxV22xEwkH8-130" value="&lt;b&gt;Tainted Module&lt;/b&gt;" style="text;html=1;strokeColor=none;fillColor=none;align=center;verticalAlign=middle;whiteSpace=wrap;rounded=0;" vertex="1" parent="1">
          <mxGeometry x="559" y="830" width="50" height="30" as="geometry" />
        </mxCell>
        <mxCell id="g-9-jLWV8RxV22xEwkH8-131" value="(tainted.v)" style="text;html=1;strokeColor=none;fillColor=none;align=center;verticalAlign=middle;whiteSpace=wrap;rounded=0;" vertex="1" parent="1">
          <mxGeometry x="557.5" y="860" width="50" height="20" as="geometry" />
        </mxCell>
        <mxCell id="g-9-jLWV8RxV22xEwkH8-132" value="&lt;font color=&quot;#000000&quot;&gt;&lt;span style=&quot;font-size: 14px;&quot;&gt;&lt;b&gt;&lt;i&gt;Model Checking&lt;/i&gt;&lt;/b&gt;&lt;/span&gt;&lt;/font&gt;" style="rounded=0;whiteSpace=wrap;html=1;fillColor=#CCCCCC;strokeColor=#000000;fontColor=#333333;" vertex="1" parent="1">
          <mxGeometry x="640" y="820" width="100" height="80" as="geometry" />
        </mxCell>
        <mxCell id="g-9-jLWV8RxV22xEwkH8-120" value="" style="endArrow=classic;html=1;rounded=0;exitX=1;exitY=0.5;exitDx=0;exitDy=0;entryX=0;entryY=0.5;entryDx=0;entryDy=0;" edge="1" parent="1" source="g-9-jLWV8RxV22xEwkH8-117" target="g-9-jLWV8RxV22xEwkH8-132">
          <mxGeometry width="50" height="50" relative="1" as="geometry">
            <mxPoint x="440" y="870" as="sourcePoint" />
            <mxPoint x="620" y="860" as="targetPoint" />
          </mxGeometry>
        </mxCell>
        <mxCell id="g-9-jLWV8RxV22xEwkH8-133" value="" style="endArrow=classic;html=1;rounded=0;entryX=0.5;entryY=1;entryDx=0;entryDy=0;" edge="1" parent="1" target="g-9-jLWV8RxV22xEwkH8-132">
          <mxGeometry width="50" height="50" relative="1" as="geometry">
            <mxPoint x="540" y="940" as="sourcePoint" />
            <mxPoint x="650" y="870" as="targetPoint" />
            <Array as="points">
              <mxPoint x="690" y="940" />
            </Array>
          </mxGeometry>
        </mxCell>
        <mxCell id="g-9-jLWV8RxV22xEwkH8-134" value="(taint_verify.tcl)" style="text;html=1;strokeColor=none;fillColor=none;align=center;verticalAlign=middle;whiteSpace=wrap;rounded=0;" vertex="1" parent="1">
          <mxGeometry x="585" y="940" width="50" height="20" as="geometry" />
        </mxCell>
        <mxCell id="g-9-jLWV8RxV22xEwkH8-135" value="" style="endArrow=classic;html=1;rounded=0;" edge="1" parent="1">
          <mxGeometry width="50" height="50" relative="1" as="geometry">
            <mxPoint x="780" y="860" as="sourcePoint" />
            <mxPoint x="800" y="840" as="targetPoint" />
            <Array as="points">
              <mxPoint x="780" y="840" />
            </Array>
          </mxGeometry>
        </mxCell>
        <mxCell id="g-9-jLWV8RxV22xEwkH8-136" value="&lt;b&gt;Secure&lt;/b&gt;" style="text;html=1;strokeColor=none;fillColor=none;align=center;verticalAlign=middle;whiteSpace=wrap;rounded=0;" vertex="1" parent="1">
          <mxGeometry x="800" y="830" width="50" height="20" as="geometry" />
        </mxCell>
        <mxCell id="g-9-jLWV8RxV22xEwkH8-138" value="&lt;b&gt;Config. File&lt;/b&gt;" style="text;html=1;strokeColor=none;fillColor=none;align=center;verticalAlign=middle;whiteSpace=wrap;rounded=0;" vertex="1" parent="1">
          <mxGeometry x="570" y="920" width="80" height="20" as="geometry" />
        </mxCell>
        <mxCell id="g-9-jLWV8RxV22xEwkH8-140" value="" style="endArrow=none;html=1;rounded=0;exitX=1;exitY=0.5;exitDx=0;exitDy=0;" edge="1" parent="1" source="g-9-jLWV8RxV22xEwkH8-132">
          <mxGeometry width="50" height="50" relative="1" as="geometry">
            <mxPoint x="780" y="860" as="sourcePoint" />
            <mxPoint x="780" y="860" as="targetPoint" />
          </mxGeometry>
        </mxCell>
        <mxCell id="g-9-jLWV8RxV22xEwkH8-141" value="" style="endArrow=classic;html=1;rounded=0;" edge="1" parent="1">
          <mxGeometry width="50" height="50" relative="1" as="geometry">
            <mxPoint x="780" y="860" as="sourcePoint" />
            <mxPoint x="800" y="880" as="targetPoint" />
            <Array as="points">
              <mxPoint x="780" y="880" />
            </Array>
          </mxGeometry>
        </mxCell>
        <mxCell id="g-9-jLWV8RxV22xEwkH8-142" value="&lt;b&gt;Insecure (Spurious)&lt;/b&gt;" style="text;html=1;strokeColor=none;fillColor=none;align=center;verticalAlign=middle;whiteSpace=wrap;rounded=0;" vertex="1" parent="1">
          <mxGeometry x="800" y="870" width="120" height="20" as="geometry" />
        </mxCell>
        <mxCell id="g-9-jLWV8RxV22xEwkH8-143" value="&lt;b style=&quot;&quot;&gt;&lt;font style=&quot;font-size: 12px;&quot; color=&quot;#808080&quot;&gt;JasperGold&lt;/font&gt;&lt;/b&gt;" style="text;html=1;strokeColor=none;fillColor=none;align=left;verticalAlign=middle;whiteSpace=wrap;rounded=0;fontStyle=2" vertex="1" parent="1">
          <mxGeometry x="666" y="875" width="90" height="30" as="geometry" />
        </mxCell>
        <mxCell id="g-9-jLWV8RxV22xEwkH8-144" value="&lt;b style=&quot;&quot;&gt;&lt;font style=&quot;font-size: 12px;&quot; color=&quot;#808080&quot;&gt;Yosys&lt;/font&gt;&lt;/b&gt;" style="text;html=1;strokeColor=none;fillColor=none;align=left;verticalAlign=middle;whiteSpace=wrap;rounded=0;fontStyle=2" vertex="1" parent="1">
          <mxGeometry x="388" y="876" width="44" height="30" as="geometry" />
        </mxCell>
        <mxCell id="g-9-jLWV8RxV22xEwkH8-145" value="" style="rounded=0;whiteSpace=wrap;html=1;fillColor=#f5f5f5;strokeColor=#000000;strokeWidth=2;fontColor=#333333;" vertex="1" parent="1">
          <mxGeometry x="330" y="1020" width="220" height="120" as="geometry" />
        </mxCell>
        <mxCell id="g-9-jLWV8RxV22xEwkH8-146" value="&lt;b&gt;&lt;font size=&quot;1&quot; color=&quot;#000000&quot;&gt;&lt;i style=&quot;font-size: 14px;&quot;&gt;Build Self Composition Module&lt;/i&gt;&lt;/font&gt;&lt;/b&gt;" style="rounded=0;whiteSpace=wrap;html=1;fillColor=#CCCCCC;strokeColor=#000000;fontColor=#333333;" vertex="1" parent="1">
          <mxGeometry x="350" y="1040" width="180" height="80" as="geometry" />
        </mxCell>
        <mxCell id="g-9-jLWV8RxV22xEwkH8-148" value="" style="endArrow=classic;html=1;rounded=0;entryX=0;entryY=0.5;entryDx=0;entryDy=0;" edge="1" parent="1" target="g-9-jLWV8RxV22xEwkH8-146">
          <mxGeometry width="50" height="50" relative="1" as="geometry">
            <mxPoint x="280" y="1080" as="sourcePoint" />
            <mxPoint x="410" y="1100" as="targetPoint" />
          </mxGeometry>
        </mxCell>
        <mxCell id="g-9-jLWV8RxV22xEwkH8-150" value="&lt;b&gt;RTL Module&lt;/b&gt;" style="text;html=1;strokeColor=none;fillColor=none;align=center;verticalAlign=middle;whiteSpace=wrap;rounded=0;" vertex="1" parent="1">
          <mxGeometry x="280" y="1050" width="50" height="30" as="geometry" />
        </mxCell>
        <mxCell id="g-9-jLWV8RxV22xEwkH8-151" value="" style="rounded=0;whiteSpace=wrap;html=1;fillColor=#f5f5f5;strokeColor=#000000;strokeWidth=2;fontColor=#333333;" vertex="1" parent="1">
          <mxGeometry x="620.5" y="1020" width="140" height="120" as="geometry" />
        </mxCell>
        <mxCell id="g-9-jLWV8RxV22xEwkH8-152" value="&lt;b&gt;&lt;font style=&quot;font-size: 14px;&quot;&gt;Self Composition Module Builder&lt;/font&gt;&lt;/b&gt;" style="text;html=1;strokeColor=none;fillColor=none;align=left;verticalAlign=middle;whiteSpace=wrap;rounded=0;fontStyle=2" vertex="1" parent="1">
          <mxGeometry x="330" y="990" width="230" height="30" as="geometry" />
        </mxCell>
        <mxCell id="g-9-jLWV8RxV22xEwkH8-153" value="&lt;span style=&quot;font-size: 14px;&quot;&gt;&lt;b&gt;Model Checker&lt;/b&gt;&lt;/span&gt;" style="text;html=1;strokeColor=none;fillColor=none;align=left;verticalAlign=middle;whiteSpace=wrap;rounded=0;fontStyle=2" vertex="1" parent="1">
          <mxGeometry x="620" y="990" width="140" height="30" as="geometry" />
        </mxCell>
        <mxCell id="g-9-jLWV8RxV22xEwkH8-154" value="(rtl.v)" style="text;html=1;strokeColor=none;fillColor=none;align=center;verticalAlign=middle;whiteSpace=wrap;rounded=0;" vertex="1" parent="1">
          <mxGeometry x="280" y="1079" width="50" height="20" as="geometry" />
        </mxCell>
        <mxCell id="g-9-jLWV8RxV22xEwkH8-155" value="&lt;b&gt;SC Module&lt;/b&gt;" style="text;html=1;strokeColor=none;fillColor=none;align=center;verticalAlign=middle;whiteSpace=wrap;rounded=0;" vertex="1" parent="1">
          <mxGeometry x="559" y="1050" width="50" height="30" as="geometry" />
        </mxCell>
        <mxCell id="g-9-jLWV8RxV22xEwkH8-156" value="(sc.v)" style="text;html=1;strokeColor=none;fillColor=none;align=center;verticalAlign=middle;whiteSpace=wrap;rounded=0;" vertex="1" parent="1">
          <mxGeometry x="557.5" y="1080" width="50" height="20" as="geometry" />
        </mxCell>
        <mxCell id="g-9-jLWV8RxV22xEwkH8-157" value="&lt;font color=&quot;#000000&quot;&gt;&lt;span style=&quot;font-size: 14px;&quot;&gt;&lt;b&gt;&lt;i&gt;Model Checking&lt;/i&gt;&lt;/b&gt;&lt;/span&gt;&lt;/font&gt;" style="rounded=0;whiteSpace=wrap;html=1;fillColor=#CCCCCC;strokeColor=#000000;fontColor=#333333;" vertex="1" parent="1">
          <mxGeometry x="640" y="1040" width="100" height="80" as="geometry" />
        </mxCell>
        <mxCell id="g-9-jLWV8RxV22xEwkH8-158" value="" style="endArrow=classic;html=1;rounded=0;exitX=1;exitY=0.5;exitDx=0;exitDy=0;entryX=0;entryY=0.5;entryDx=0;entryDy=0;" edge="1" parent="1" target="g-9-jLWV8RxV22xEwkH8-157">
          <mxGeometry width="50" height="50" relative="1" as="geometry">
            <mxPoint x="530" y="1080" as="sourcePoint" />
            <mxPoint x="620" y="1080" as="targetPoint" />
          </mxGeometry>
        </mxCell>
        <mxCell id="g-9-jLWV8RxV22xEwkH8-159" value="" style="endArrow=classic;html=1;rounded=0;entryX=0.5;entryY=1;entryDx=0;entryDy=0;" edge="1" parent="1" target="g-9-jLWV8RxV22xEwkH8-157">
          <mxGeometry width="50" height="50" relative="1" as="geometry">
            <mxPoint x="540" y="1160" as="sourcePoint" />
            <mxPoint x="650" y="1090" as="targetPoint" />
            <Array as="points">
              <mxPoint x="690" y="1160" />
            </Array>
          </mxGeometry>
        </mxCell>
        <mxCell id="g-9-jLWV8RxV22xEwkH8-160" value="(sc_verify.tcl)" style="text;html=1;strokeColor=none;fillColor=none;align=center;verticalAlign=middle;whiteSpace=wrap;rounded=0;" vertex="1" parent="1">
          <mxGeometry x="585" y="1160" width="50" height="20" as="geometry" />
        </mxCell>
        <mxCell id="g-9-jLWV8RxV22xEwkH8-161" value="" style="endArrow=classic;html=1;rounded=0;" edge="1" parent="1">
          <mxGeometry width="50" height="50" relative="1" as="geometry">
            <mxPoint x="780" y="1080" as="sourcePoint" />
            <mxPoint x="800" y="1060" as="targetPoint" />
            <Array as="points">
              <mxPoint x="780" y="1060" />
            </Array>
          </mxGeometry>
        </mxCell>
        <mxCell id="g-9-jLWV8RxV22xEwkH8-162" value="&lt;b&gt;Secure&lt;/b&gt;" style="text;html=1;strokeColor=none;fillColor=none;align=center;verticalAlign=middle;whiteSpace=wrap;rounded=0;" vertex="1" parent="1">
          <mxGeometry x="800" y="1050" width="50" height="20" as="geometry" />
        </mxCell>
        <mxCell id="g-9-jLWV8RxV22xEwkH8-163" value="&lt;b&gt;Config. File&lt;/b&gt;" style="text;html=1;strokeColor=none;fillColor=none;align=center;verticalAlign=middle;whiteSpace=wrap;rounded=0;" vertex="1" parent="1">
          <mxGeometry x="570" y="1140" width="80" height="20" as="geometry" />
        </mxCell>
        <mxCell id="g-9-jLWV8RxV22xEwkH8-164" value="" style="endArrow=none;html=1;rounded=0;exitX=1;exitY=0.5;exitDx=0;exitDy=0;" edge="1" parent="1" source="g-9-jLWV8RxV22xEwkH8-157">
          <mxGeometry width="50" height="50" relative="1" as="geometry">
            <mxPoint x="780" y="1080" as="sourcePoint" />
            <mxPoint x="780" y="1080" as="targetPoint" />
          </mxGeometry>
        </mxCell>
        <mxCell id="g-9-jLWV8RxV22xEwkH8-165" value="" style="endArrow=classic;html=1;rounded=0;" edge="1" parent="1">
          <mxGeometry width="50" height="50" relative="1" as="geometry">
            <mxPoint x="780" y="1080" as="sourcePoint" />
            <mxPoint x="800" y="1100" as="targetPoint" />
            <Array as="points">
              <mxPoint x="780" y="1100" />
            </Array>
          </mxGeometry>
        </mxCell>
        <mxCell id="g-9-jLWV8RxV22xEwkH8-166" value="&lt;b&gt;Insecure&lt;/b&gt;" style="text;html=1;strokeColor=none;fillColor=none;align=center;verticalAlign=middle;whiteSpace=wrap;rounded=0;" vertex="1" parent="1">
          <mxGeometry x="800" y="1090" width="60" height="20" as="geometry" />
        </mxCell>
        <mxCell id="g-9-jLWV8RxV22xEwkH8-167" value="&lt;b style=&quot;&quot;&gt;&lt;font style=&quot;font-size: 12px;&quot; color=&quot;#808080&quot;&gt;JasperGold&lt;/font&gt;&lt;/b&gt;" style="text;html=1;strokeColor=none;fillColor=none;align=left;verticalAlign=middle;whiteSpace=wrap;rounded=0;fontStyle=2" vertex="1" parent="1">
          <mxGeometry x="666" y="1095" width="90" height="30" as="geometry" />
        </mxCell>
        <mxCell id="g-9-jLWV8RxV22xEwkH8-169" value="" style="shape=or;whiteSpace=wrap;html=1;strokeWidth=2;" vertex="1" parent="1">
          <mxGeometry x="480" y="1260" width="80" height="100" as="geometry" />
        </mxCell>
        <mxCell id="g-9-jLWV8RxV22xEwkH8-171" value="" style="endArrow=none;html=1;rounded=0;exitX=0;exitY=0.375;exitDx=0;exitDy=0;exitPerimeter=0;entryX=0;entryY=1;entryDx=0;entryDy=0;" edge="1" parent="1" target="g-9-jLWV8RxV22xEwkH8-175">
          <mxGeometry width="50" height="50" relative="1" as="geometry">
            <mxPoint x="480" y="1330" as="sourcePoint" />
            <mxPoint x="400" y="1330" as="targetPoint" />
          </mxGeometry>
        </mxCell>
        <mxCell id="g-9-jLWV8RxV22xEwkH8-172" value="" style="endArrow=none;html=1;rounded=0;exitX=0;exitY=0.375;exitDx=0;exitDy=0;exitPerimeter=0;entryX=0;entryY=1;entryDx=0;entryDy=0;" edge="1" parent="1" target="g-9-jLWV8RxV22xEwkH8-174">
          <mxGeometry width="50" height="50" relative="1" as="geometry">
            <mxPoint x="480" y="1300" as="sourcePoint" />
            <mxPoint x="400" y="1300" as="targetPoint" />
          </mxGeometry>
        </mxCell>
        <mxCell id="g-9-jLWV8RxV22xEwkH8-174" value="&lt;span style=&quot;font-size: 14px;&quot;&gt;&lt;b style=&quot;&quot;&gt;&lt;i style=&quot;&quot;&gt;in1&lt;/i&gt;&lt;/b&gt;&lt;/span&gt;" style="text;html=1;strokeColor=none;fillColor=none;align=center;verticalAlign=middle;whiteSpace=wrap;rounded=0;" vertex="1" parent="1">
          <mxGeometry x="440" y="1280" width="40" height="20" as="geometry" />
        </mxCell>
        <mxCell id="g-9-jLWV8RxV22xEwkH8-175" value="&lt;span style=&quot;font-size: 14px;&quot;&gt;&lt;b style=&quot;&quot;&gt;&lt;i style=&quot;&quot;&gt;in2&lt;/i&gt;&lt;/b&gt;&lt;/span&gt;" style="text;html=1;strokeColor=none;fillColor=none;align=center;verticalAlign=middle;whiteSpace=wrap;rounded=0;" vertex="1" parent="1">
          <mxGeometry x="440" y="1310" width="40" height="20" as="geometry" />
        </mxCell>
        <mxCell id="g-9-jLWV8RxV22xEwkH8-176" value="" style="endArrow=none;html=1;rounded=0;exitX=1;exitY=1;exitDx=0;exitDy=0;" edge="1" parent="1" source="g-9-jLWV8RxV22xEwkH8-177">
          <mxGeometry width="50" height="50" relative="1" as="geometry">
            <mxPoint x="640" y="1310" as="sourcePoint" />
            <mxPoint x="560" y="1310" as="targetPoint" />
          </mxGeometry>
        </mxCell>
        <mxCell id="g-9-jLWV8RxV22xEwkH8-177" value="&lt;span style=&quot;font-size: 14px;&quot;&gt;&lt;b style=&quot;&quot;&gt;&lt;i style=&quot;&quot;&gt;out&lt;/i&gt;&lt;/b&gt;&lt;/span&gt;" style="text;html=1;strokeColor=none;fillColor=none;align=center;verticalAlign=middle;whiteSpace=wrap;rounded=0;" vertex="1" parent="1">
          <mxGeometry x="560" y="1290" width="40" height="20" as="geometry" />
        </mxCell>
        <mxCell id="g-9-jLWV8RxV22xEwkH8-179" value="" style="endArrow=none;html=1;rounded=0;exitX=0;exitY=0.375;exitDx=0;exitDy=0;exitPerimeter=0;entryX=0;entryY=1;entryDx=0;entryDy=0;" edge="1" parent="1" target="g-9-jLWV8RxV22xEwkH8-182">
          <mxGeometry width="50" height="50" relative="1" as="geometry">
            <mxPoint x="720" y="1340" as="sourcePoint" />
            <mxPoint x="640" y="1340" as="targetPoint" />
          </mxGeometry>
        </mxCell>
        <mxCell id="g-9-jLWV8RxV22xEwkH8-180" value="" style="endArrow=none;html=1;rounded=0;exitX=0;exitY=0.375;exitDx=0;exitDy=0;exitPerimeter=0;entryX=0;entryY=1;entryDx=0;entryDy=0;" edge="1" parent="1" target="g-9-jLWV8RxV22xEwkH8-181">
          <mxGeometry width="50" height="50" relative="1" as="geometry">
            <mxPoint x="720" y="1320" as="sourcePoint" />
            <mxPoint x="640" y="1320" as="targetPoint" />
          </mxGeometry>
        </mxCell>
        <mxCell id="g-9-jLWV8RxV22xEwkH8-181" value="&lt;span style=&quot;font-size: 14px;&quot;&gt;&lt;b style=&quot;&quot;&gt;&lt;i style=&quot;&quot;&gt;in1_t&lt;/i&gt;&lt;/b&gt;&lt;/span&gt;" style="text;html=1;strokeColor=none;fillColor=none;align=center;verticalAlign=middle;whiteSpace=wrap;rounded=0;" vertex="1" parent="1">
          <mxGeometry x="680" y="1300" width="40" height="20" as="geometry" />
        </mxCell>
        <mxCell id="g-9-jLWV8RxV22xEwkH8-182" value="&lt;span style=&quot;font-size: 14px;&quot;&gt;&lt;b style=&quot;&quot;&gt;&lt;i style=&quot;&quot;&gt;in2_t&lt;/i&gt;&lt;/b&gt;&lt;/span&gt;" style="text;html=1;strokeColor=none;fillColor=none;align=center;verticalAlign=middle;whiteSpace=wrap;rounded=0;" vertex="1" parent="1">
          <mxGeometry x="680" y="1320" width="40" height="20" as="geometry" />
        </mxCell>
        <mxCell id="g-9-jLWV8RxV22xEwkH8-183" value="" style="endArrow=none;html=1;rounded=0;exitX=1;exitY=1;exitDx=0;exitDy=0;" edge="1" parent="1" source="g-9-jLWV8RxV22xEwkH8-184">
          <mxGeometry width="50" height="50" relative="1" as="geometry">
            <mxPoint x="880" y="1310" as="sourcePoint" />
            <mxPoint x="800" y="1310" as="targetPoint" />
          </mxGeometry>
        </mxCell>
        <mxCell id="g-9-jLWV8RxV22xEwkH8-184" value="&lt;span style=&quot;font-size: 14px;&quot;&gt;&lt;b style=&quot;&quot;&gt;&lt;i style=&quot;&quot;&gt;out_t&lt;/i&gt;&lt;/b&gt;&lt;/span&gt;" style="text;html=1;strokeColor=none;fillColor=none;align=center;verticalAlign=middle;whiteSpace=wrap;rounded=0;" vertex="1" parent="1">
          <mxGeometry x="800" y="1290" width="40" height="20" as="geometry" />
        </mxCell>
        <mxCell id="g-9-jLWV8RxV22xEwkH8-185" value="&lt;b style=&quot;&quot;&gt;&lt;i style=&quot;&quot;&gt;&lt;font style=&quot;font-size: 14px;&quot;&gt;out_t = (in1_t &amp;amp; in2_t) | (in1_t &amp;amp; in2) | (in1 &amp;amp; in2_t)&amp;nbsp;&lt;/font&gt;&lt;/i&gt;&lt;/b&gt;" style="text;html=1;strokeColor=none;fillColor=none;align=center;verticalAlign=middle;whiteSpace=wrap;rounded=0;" vertex="1" parent="1">
          <mxGeometry x="460" y="1380" width="340" height="20" as="geometry" />
        </mxCell>
        <mxCell id="g-9-jLWV8RxV22xEwkH8-186" value="" style="triangle;whiteSpace=wrap;html=1;strokeWidth=2;" vertex="1" parent="1">
          <mxGeometry x="500" y="1430" width="40" height="60" as="geometry" />
        </mxCell>
        <mxCell id="g-9-jLWV8RxV22xEwkH8-187" value="" style="ellipse;whiteSpace=wrap;html=1;aspect=fixed;strokeWidth=2;" vertex="1" parent="1">
          <mxGeometry x="540" y="1455" width="10" height="10" as="geometry" />
        </mxCell>
        <mxCell id="g-9-jLWV8RxV22xEwkH8-188" value="" style="endArrow=none;html=1;rounded=0;" edge="1" parent="1">
          <mxGeometry width="50" height="50" relative="1" as="geometry">
            <mxPoint x="500" y="1460" as="sourcePoint" />
            <mxPoint x="460" y="1460" as="targetPoint" />
          </mxGeometry>
        </mxCell>
        <mxCell id="g-9-jLWV8RxV22xEwkH8-189" value="" style="endArrow=none;html=1;rounded=0;" edge="1" parent="1">
          <mxGeometry width="50" height="50" relative="1" as="geometry">
            <mxPoint x="590" y="1460" as="sourcePoint" />
            <mxPoint x="550" y="1460" as="targetPoint" />
          </mxGeometry>
        </mxCell>
        <mxCell id="g-9-jLWV8RxV22xEwkH8-190" value="" style="triangle;whiteSpace=wrap;html=1;strokeWidth=2;" vertex="1" parent="1">
          <mxGeometry x="740" y="1430" width="40" height="60" as="geometry" />
        </mxCell>
        <mxCell id="g-9-jLWV8RxV22xEwkH8-192" value="" style="endArrow=none;html=1;rounded=0;exitX=0;exitY=0.5;exitDx=0;exitDy=0;entryX=0;entryY=1;entryDx=0;entryDy=0;" edge="1" parent="1" source="g-9-jLWV8RxV22xEwkH8-190" target="g-9-jLWV8RxV22xEwkH8-196">
          <mxGeometry width="50" height="50" relative="1" as="geometry">
            <mxPoint x="740" y="1459.72" as="sourcePoint" />
            <mxPoint x="660" y="1459.72" as="targetPoint" />
          </mxGeometry>
        </mxCell>
        <mxCell id="g-9-jLWV8RxV22xEwkH8-193" value="" style="endArrow=none;html=1;rounded=0;entryX=1;entryY=0.5;entryDx=0;entryDy=0;" edge="1" parent="1" target="g-9-jLWV8RxV22xEwkH8-190">
          <mxGeometry width="50" height="50" relative="1" as="geometry">
            <mxPoint x="830" y="1460" as="sourcePoint" />
            <mxPoint x="790" y="1460" as="targetPoint" />
          </mxGeometry>
        </mxCell>
        <mxCell id="g-9-jLWV8RxV22xEwkH8-194" value="&lt;span style=&quot;font-size: 14px;&quot;&gt;&lt;b style=&quot;&quot;&gt;&lt;i style=&quot;&quot;&gt;in&lt;/i&gt;&lt;/b&gt;&lt;/span&gt;" style="text;html=1;strokeColor=none;fillColor=none;align=center;verticalAlign=middle;whiteSpace=wrap;rounded=0;" vertex="1" parent="1">
          <mxGeometry x="460" y="1440" width="40" height="20" as="geometry" />
        </mxCell>
        <mxCell id="g-9-jLWV8RxV22xEwkH8-195" value="&lt;span style=&quot;font-size: 14px;&quot;&gt;&lt;b style=&quot;&quot;&gt;&lt;i style=&quot;&quot;&gt;out&lt;/i&gt;&lt;/b&gt;&lt;/span&gt;" style="text;html=1;strokeColor=none;fillColor=none;align=center;verticalAlign=middle;whiteSpace=wrap;rounded=0;" vertex="1" parent="1">
          <mxGeometry x="555" y="1440" width="30" height="20" as="geometry" />
        </mxCell>
        <mxCell id="g-9-jLWV8RxV22xEwkH8-196" value="&lt;span style=&quot;font-size: 14px;&quot;&gt;&lt;b style=&quot;&quot;&gt;&lt;i style=&quot;&quot;&gt;in_t&lt;/i&gt;&lt;/b&gt;&lt;/span&gt;" style="text;html=1;strokeColor=none;fillColor=none;align=center;verticalAlign=middle;whiteSpace=wrap;rounded=0;" vertex="1" parent="1">
          <mxGeometry x="700" y="1440" width="40" height="20" as="geometry" />
        </mxCell>
        <mxCell id="g-9-jLWV8RxV22xEwkH8-197" value="&lt;span style=&quot;font-size: 14px;&quot;&gt;&lt;b style=&quot;&quot;&gt;&lt;i style=&quot;&quot;&gt;out_t&lt;/i&gt;&lt;/b&gt;&lt;/span&gt;" style="text;html=1;strokeColor=none;fillColor=none;align=center;verticalAlign=middle;whiteSpace=wrap;rounded=0;" vertex="1" parent="1">
          <mxGeometry x="790" y="1440" width="40" height="20" as="geometry" />
        </mxCell>
        <mxCell id="g-9-jLWV8RxV22xEwkH8-198" value="&lt;b style=&quot;&quot;&gt;&lt;i style=&quot;&quot;&gt;&lt;font style=&quot;font-size: 14px;&quot;&gt;out_t = in_t&lt;/font&gt;&lt;/i&gt;&lt;/b&gt;" style="text;html=1;strokeColor=none;fillColor=none;align=center;verticalAlign=middle;whiteSpace=wrap;rounded=0;" vertex="1" parent="1">
          <mxGeometry x="600" y="1510" width="80" height="20" as="geometry" />
        </mxCell>
        <mxCell id="g-9-jLWV8RxV22xEwkH8-199" value="" style="shape=flexArrow;endArrow=classic;html=1;rounded=0;fillColor=#f5f5f5;strokeColor=#666666;" edge="1" parent="1">
          <mxGeometry width="50" height="50" relative="1" as="geometry">
            <mxPoint x="620" y="1320" as="sourcePoint" />
            <mxPoint x="670" y="1320" as="targetPoint" />
          </mxGeometry>
        </mxCell>
        <mxCell id="g-9-jLWV8RxV22xEwkH8-200" value="" style="shape=flexArrow;endArrow=classic;html=1;rounded=0;fillColor=#f5f5f5;strokeColor=#666666;" edge="1" parent="1">
          <mxGeometry width="50" height="50" relative="1" as="geometry">
            <mxPoint x="620" y="1460" as="sourcePoint" />
            <mxPoint x="670" y="1460" as="targetPoint" />
          </mxGeometry>
        </mxCell>
        <mxCell id="g-9-jLWV8RxV22xEwkH8-202" value="&lt;b&gt;&lt;font style=&quot;font-size: 14px;&quot; color=&quot;#000000&quot;&gt;Tainted Module (AIG)&lt;/font&gt;&lt;/b&gt;" style="rounded=0;whiteSpace=wrap;html=1;fillColor=#CCCCCC;strokeColor=#000000;fontColor=#333333;strokeWidth=2;" vertex="1" parent="1">
          <mxGeometry x="1080" y="1360" width="80" height="90" as="geometry" />
        </mxCell>
        <mxCell id="g-9-jLWV8RxV22xEwkH8-203" value="" style="endArrow=classic;html=1;rounded=0;entryX=0;entryY=0.375;entryDx=0;entryDy=0;entryPerimeter=0;" edge="1" parent="1">
          <mxGeometry width="50" height="50" relative="1" as="geometry">
            <mxPoint x="960" y="1390" as="sourcePoint" />
            <mxPoint x="1080" y="1389.85" as="targetPoint" />
            <Array as="points">
              <mxPoint x="1030" y="1389.85" />
            </Array>
          </mxGeometry>
        </mxCell>
        <mxCell id="g-9-jLWV8RxV22xEwkH8-204" value="" style="endArrow=classic;html=1;rounded=0;entryX=0;entryY=0.375;entryDx=0;entryDy=0;entryPerimeter=0;" edge="1" parent="1">
          <mxGeometry width="50" height="50" relative="1" as="geometry">
            <mxPoint x="960" y="1420" as="sourcePoint" />
            <mxPoint x="1080" y="1420" as="targetPoint" />
          </mxGeometry>
        </mxCell>
        <mxCell id="g-9-jLWV8RxV22xEwkH8-207" value="" style="endArrow=classic;html=1;rounded=0;" edge="1" parent="1">
          <mxGeometry width="50" height="50" relative="1" as="geometry">
            <mxPoint x="1160" y="1405" as="sourcePoint" />
            <mxPoint x="1280" y="1405" as="targetPoint" />
            <Array as="points">
              <mxPoint x="1170" y="1405" />
            </Array>
          </mxGeometry>
        </mxCell>
        <mxCell id="g-9-jLWV8RxV22xEwkH8-208" value="&lt;i&gt;finish taint always 0?&lt;/i&gt;" style="text;html=1;strokeColor=none;fillColor=none;align=center;verticalAlign=middle;whiteSpace=wrap;rounded=0;" vertex="1" parent="1">
          <mxGeometry x="1160" y="1380" width="120" height="20" as="geometry" />
        </mxCell>
        <mxCell id="g-9-jLWV8RxV22xEwkH8-209" value="&lt;i&gt;private input taint = 1&lt;/i&gt;" style="text;html=1;strokeColor=none;fillColor=none;align=center;verticalAlign=middle;whiteSpace=wrap;rounded=0;" vertex="1" parent="1">
          <mxGeometry x="960" y="1370" width="120" height="20" as="geometry" />
        </mxCell>
        <mxCell id="g-9-jLWV8RxV22xEwkH8-210" value="&lt;i&gt;public input taint = 0&lt;/i&gt;" style="text;html=1;strokeColor=none;fillColor=none;align=center;verticalAlign=middle;whiteSpace=wrap;rounded=0;" vertex="1" parent="1">
          <mxGeometry x="960" y="1400" width="120" height="20" as="geometry" />
        </mxCell>
        <mxCell id="g-9-jLWV8RxV22xEwkH8-211" value="&lt;b&gt;&lt;i&gt;&lt;font style=&quot;font-size: 18px;&quot;&gt;Check: If there exists IFT from private input taint to finish taint&lt;/font&gt;&lt;/i&gt;&lt;/b&gt;" style="text;html=1;strokeColor=none;fillColor=none;align=center;verticalAlign=middle;whiteSpace=wrap;rounded=0;" vertex="1" parent="1">
          <mxGeometry x="960" y="1310" width="280" height="30" as="geometry" />
        </mxCell>
        <mxCell id="g-9-jLWV8RxV22xEwkH8-212" value="" style="endArrow=none;html=1;rounded=0;exitX=0;exitY=0.375;exitDx=0;exitDy=0;exitPerimeter=0;entryX=0;entryY=1;entryDx=0;entryDy=0;" edge="1" parent="1" target="g-9-jLWV8RxV22xEwkH8-215">
          <mxGeometry width="50" height="50" relative="1" as="geometry">
            <mxPoint x="720" y="1300" as="sourcePoint" />
            <mxPoint x="640" y="1300" as="targetPoint" />
          </mxGeometry>
        </mxCell>
        <mxCell id="g-9-jLWV8RxV22xEwkH8-213" value="" style="endArrow=none;html=1;rounded=0;exitX=0;exitY=0.375;exitDx=0;exitDy=0;exitPerimeter=0;entryX=0;entryY=1;entryDx=0;entryDy=0;" edge="1" parent="1" target="g-9-jLWV8RxV22xEwkH8-214">
          <mxGeometry width="50" height="50" relative="1" as="geometry">
            <mxPoint x="720" y="1280" as="sourcePoint" />
            <mxPoint x="640" y="1280" as="targetPoint" />
          </mxGeometry>
        </mxCell>
        <mxCell id="g-9-jLWV8RxV22xEwkH8-214" value="&lt;span style=&quot;font-size: 14px;&quot;&gt;&lt;b style=&quot;&quot;&gt;&lt;i style=&quot;&quot;&gt;in1&lt;/i&gt;&lt;/b&gt;&lt;/span&gt;" style="text;html=1;strokeColor=none;fillColor=none;align=center;verticalAlign=middle;whiteSpace=wrap;rounded=0;" vertex="1" parent="1">
          <mxGeometry x="680" y="1260" width="40" height="20" as="geometry" />
        </mxCell>
        <mxCell id="g-9-jLWV8RxV22xEwkH8-215" value="&lt;span style=&quot;font-size: 14px;&quot;&gt;&lt;b style=&quot;&quot;&gt;&lt;i style=&quot;&quot;&gt;in2&lt;/i&gt;&lt;/b&gt;&lt;/span&gt;" style="text;html=1;strokeColor=none;fillColor=none;align=center;verticalAlign=middle;whiteSpace=wrap;rounded=0;" vertex="1" parent="1">
          <mxGeometry x="680" y="1280" width="40" height="20" as="geometry" />
        </mxCell>
        <mxCell id="g-9-jLWV8RxV22xEwkH8-216" value="" style="rounded=0;whiteSpace=wrap;html=1;strokeWidth=2;" vertex="1" parent="1">
          <mxGeometry x="720" y="1260" width="80" height="100" as="geometry" />
        </mxCell>
      </root>
    </mxGraphModel>
  </diagram>
</mxfile>
